# xmcd CD database file
#
# Track frame offsets:
#	150
#	18344
#	32298
#	48857
#	62951
#	73587
#	92244
#	106891
#	120033
#	131818
#	145754
#	161981
#
# Disc length: 2370 seconds
#
# Revision: 0
# Processed by: cddbd v1.5.2PL0 Copyright (c) Steve Scherf et al.
# Submitted via: CDex 1.70beta2
#
DISCID=9c09400c
DTITLE=Art Hodges - Easy Living
DYEAR=2009
DGENRE=Jazz
TTITLE0=Autumn Leaves
TTITLE1=Georgia On My Mind
TTITLE2=Misty
TTITLE3=They Can't Take That Away
TTITLE4=Makin' Whoopee
TTITLE5=God Bless
TTITLE6=Easy Living
TTITLE7=Stardust
TTITLE8=Blue Moon
TTITLE9=Summertime
TTITLE10=Moonlight in Vermont
TTITLE11=Art's Blues
EXTD=YEAR: 2009
EXTT0=
EXTT1=
EXTT2=
EXTT3=
EXTT4=
EXTT5=
EXTT6=
EXTT7=
EXTT8=
EXTT9=
EXTT10=
EXTT11=
PLAYORDER=
